Coordinates
version=1
nRows=38
nColumns=12
inDegrees=yes

Units are S.I. units (second, meters, Newtons, ...)
Angles are in degrees

endheader
time	SC_y	SC_z	SC_x	AC_y	AC_z	AC_x	GH_y	GH_z	GH_yy	EL_x	PS_y
       0.0              -48.16          13.47          61.84          62.31          8.779         -4.031         -177.7            8.5          142.9           23.3          103.7
   0.04335              -48.16          13.47          61.84          62.31          8.776         -4.032         -177.7          8.497          142.8           23.3          103.7
    0.0867              -48.16          13.47          61.84          62.31          8.772         -4.032         -177.6          8.494          142.8           23.3          103.6
      0.13              -48.16          13.47          61.84          62.31          8.767         -4.033         -177.6           8.49          142.8           23.3          103.6
    0.1734              -48.16          13.47          61.84          62.31          8.763         -4.034         -177.5          8.486          142.7          23.31          103.6
    0.2167              -48.16          13.46          61.83           62.3          8.758         -4.034         -177.5          8.482          142.7          23.31          103.6
    0.2601              -48.16          13.46          61.83           62.3          8.753         -4.035         -177.4          8.477          142.6          23.31          103.6
    0.3034              -48.16          13.46          61.83           62.3          8.747         -4.035         -177.4          8.472          142.6          23.31          103.6
    0.3468              -48.16          13.46          61.83           62.3          8.742         -4.036         -177.3          8.467          142.5          23.31          103.6
    0.3901              -48.16          13.45          61.82           62.3          8.735         -4.037         -177.2          8.462          142.4          23.32          103.6
    0.4335              -48.16          13.45          61.82           62.3          8.729         -4.038         -177.2          8.456          142.4          23.32          103.5
    0.4768              -48.16          13.45          61.82           62.3          8.721         -4.039         -177.1          8.449          142.3          23.32          103.5
    0.5202              -48.16          13.44          61.81          62.29          8.713          -4.04         -177.0          8.442          142.2          23.32          103.5
    0.5635              -48.15          13.44          61.81          62.29          8.705         -4.041         -176.9          8.435          142.1          23.33          103.5
    0.6069              -48.15          13.43          61.81          62.29          8.696         -4.042         -176.8          8.427          142.1          23.33          103.5
    0.6502              -48.15          13.43           61.8          62.29          8.686         -4.043         -176.7          8.418          142.0          23.33          103.4
    0.6936              -48.15          13.42           61.8          62.29          8.675         -4.045         -176.6          8.408          141.9          23.34          103.4
    0.7369              -48.15          13.42          61.79          62.28          8.663         -4.046         -176.5          8.398          141.7          23.34          103.4
    0.7803              -48.15          13.41          61.79          62.28           8.65         -4.048         -176.4          8.387          141.6          23.35          103.4
    0.8236              -48.15           13.4          61.78          62.28          8.636         -4.049         -176.2          8.374          141.5          23.35          103.3
     0.867              -48.15           13.4          61.77          62.27          8.621         -4.051         -176.1          8.361          141.3          23.36          103.3
    0.9103              -48.15          13.39          61.77          62.27          8.604         -4.054         -175.9          8.346          141.2          23.36          103.3
    0.9537              -48.15          13.38          61.76          62.27          8.585         -4.056         -175.7          8.329          141.0          23.37          103.2
     0.997              -48.15          13.37          61.75          62.26          8.564         -4.059         -175.5          8.311          140.8          23.38          103.2
      1.04              -48.15          13.36          61.74          62.26          8.541         -4.061         -175.3           8.29          140.5          23.39          103.1
     1.084              -48.14          13.35          61.73          62.25          8.515         -4.065         -175.0          8.268          140.3          23.39          103.0
     1.127              -48.14          13.33          61.71          62.24          8.486         -4.068         -174.7          8.242          140.0           23.4          103.0
      1.17              -48.14          13.32           61.7          62.24          8.454         -4.072         -174.4          8.213          139.7          23.42          102.9
     1.214              -48.14           13.3          61.68          62.23          8.417         -4.077         -174.0          8.181          139.3          23.43          102.8
     1.257              -48.14          13.28          61.67          62.22          8.375         -4.082         -173.5          8.144          138.9          23.44          102.7
       1.3              -48.13          13.25          61.65          62.21          8.327         -4.088         -173.1          8.102          138.5          23.46          102.6
     1.344              -48.13          13.23          61.62          62.19          8.273         -4.095         -172.5          8.054          137.9          23.48          102.5
     1.387              -48.13           13.2          61.59          62.18          8.209         -4.103         -171.8          7.998          137.3           23.5          102.3
     1.431              -48.12          13.16          61.56          62.16          8.136         -4.112         -171.1          7.934          136.6          23.53          102.2
     1.474              -48.12          13.12          61.52          62.14           8.05         -4.123         -170.2          7.858          135.8          23.56          102.0
     1.517              -48.11          13.07          61.48          62.12          7.949         -4.136         -169.2          7.769          134.8           23.6          101.7
     1.561              -48.11          13.01          61.43          62.09          7.828         -4.151         -167.9          7.663          133.6          23.64          101.5
     1.604               -48.1          12.94          61.36          62.06          7.684         -4.169         -166.4          7.536          132.2          23.69          101.1
